<?xml version="1.0" standalone="no"?>
<!DOCTYPE svg PUBLIC "-//W3C//DTD SVG 1.1//EN"
  "http://www.w3.org/Graphics/SVG/1.1/DTD/svg11.dtd">
<svg version="1.1" xmlns="http://www.w3.org/2000/svg" xmlns:xlink="http://www.w3.org/1999/xlink" width="1280" height="720" viewBox="-1307.2222222222222 214 1004.4444444444445 565" id="ccdiagram"><filter id="grayscale"><feColorMatrix type="saturate" values="0"></feColorMatrix></filter><filter id="highlight"><feColorMatrix type="matrix" color-interpolation-filters="sRGB" values="0.20338 0 0 0 0
                0 0.58474 0 0 0
                0 0 0.97033 0 0
                0 0 0 1 0"></feColorMatrix></filter><defs><style type="text/css">@import url('https://fonts.googleapis.com/css2?family=Noto+Sans:ital,wght@0,100..900;1,100..900&amp;family=Roboto+Mono:ital,wght@0,100..700;1,100..700&amp;display=swap');</style></defs><g><rect x="-1307.2222222222222" y="214" width="1004.4444444444445" height="565" fill="#ffffff" id="interactionLayer"></rect><g style="pointer-events: none;"><g><pattern id="gridPatternMinor" x="0" y="37" width="128" height="74" patternUnits="userSpaceOnUse"><path d="M 0 0 L 128 74" stroke="#eeeeee" stroke-width="1"></path><path d="M 128 0 L 0 74" stroke="#eeeeee" stroke-width="1"></path></pattern><polygon points="-805 -76, 186 497, -805 1069, -1796 497" fill="url(#gridPatternMinor)"></polygon></g></g><g pointer-events="auto"></g><g style="pointer-events: none;"><g><pattern id="gridPatternMajor" x="0" y="37" width="128" height="74" patternUnits="userSpaceOnUse"><path d="M 64 0 L 128 37 64 74 0 37 z" stroke="#54626f" stroke-width="1" fill="none"></path></pattern><polygon points="-805 -76, 186 497, -805 1069, -1796 497" fill="url(#gridPatternMajor)"></polygon></g></g><g pointer-events="auto"></g><g pointer-events="auto"></g><g pointer-events="auto"></g><g pointer-events="auto"></g><g pointer-events="auto"></g><g pointer-events="auto"></g><g pointer-events="auto"></g><g pointer-events="auto"></g><g pointer-events="auto"></g><g pointer-events="auto"></g><g pointer-events="auto"></g><g pointer-events="none"></g><g pointer-events="auto"><g id="49d26534-ce37-4a63-ad9a-6079efadeeeb-291e7aee-cbdf-44e2-bdf6-ceb1ac77df2e"><g cursor="pointer"><line x1="-960" y1="370" x2="-928" y2="389" stroke="red" stroke-width="10" opacity="0"></line><line x1="-960" y1="370" x2="-928" y2="389" stroke="#000000" stroke-width="4" stroke-linecap="round"></line></g></g><g id="8349e517-2767-463f-8f4b-08548d6d255b-49d26534-ce37-4a63-ad9a-6079efadeeeb"><g cursor="pointer"><line x1="-1034" y1="327" x2="-960" y2="370" stroke="red" stroke-width="10" opacity="0"></line><line x1="-1034" y1="327" x2="-960" y2="370" stroke="#000000" stroke-width="4" stroke-linecap="round"></line></g></g><g id="291e7aee-cbdf-44e2-bdf6-ceb1ac77df2e-cae0c896-7ea8-42ed-adbc-d0dc56007212"><g cursor="pointer"><line x1="-928" y1="389" x2="-960" y2="370" stroke="red" stroke-width="10" opacity="0"></line><line x1="-928" y1="389" x2="-960" y2="370" stroke="#000000" stroke-width="4" stroke-linecap="round"></line></g></g><g id="cae0c896-7ea8-42ed-adbc-d0dc56007212-9ed31aa1-a9b0-42cf-8658-c4da7bd88f8d"><g cursor="pointer"><line x1="-960" y1="370" x2="-956" y2="372" stroke="red" stroke-width="10" opacity="0"></line><line x1="-960" y1="370" x2="-956" y2="372" stroke="#000000" stroke-width="4" stroke-linecap="round"></line><polygon points="-944 379, -956 361, -960 370, -976 373, -944 379" stroke-linejoin="round" fill="#000000" stroke="#000000" stroke-width="1"></polygon></g></g><g id="9ed31aa1-a9b0-42cf-8658-c4da7bd88f8d-59fe2dd3-f3ce-4c33-8d39-d7eff3f0a706"><g cursor="pointer"><line x1="-880" y1="416" x2="-828" y2="446" stroke="red" stroke-width="10" opacity="0"></line><line x1="-880" y1="416" x2="-828" y2="446" stroke="#000000" stroke-width="4" stroke-linecap="round"></line><polygon points="-816 453, -828 435, -832 444, -848 447, -816 453" stroke-linejoin="round" fill="#000000" stroke="#000000" stroke-width="1"></polygon></g></g><g id="59fe2dd3-f3ce-4c33-8d39-d7eff3f0a706-b4350977-8148-4f9b-9bbd-631c0ec33448"><g cursor="pointer"><line x1="-752" y1="490" x2="-700" y2="520" stroke="red" stroke-width="10" opacity="0"></line><line x1="-752" y1="490" x2="-700" y2="520" stroke="#000000" stroke-width="4" stroke-linecap="round"></line><polygon points="-688 527, -700 509, -704 518, -720 521, -688 527" stroke-linejoin="round" fill="#000000" stroke="#000000" stroke-width="1"></polygon></g></g><g id="b4350977-8148-4f9b-9bbd-631c0ec33448-dcc31fc6-afbc-4a2e-a498-317d14b8c498"><g cursor="pointer"><line x1="-624" y1="564" x2="-572" y2="594" stroke="red" stroke-width="10" opacity="0"></line><line x1="-624" y1="564" x2="-572" y2="594" stroke="#000000" stroke-width="4" stroke-linecap="round"></line><polygon points="-560 601, -572 583, -576 592, -592 595, -560 601" stroke-linejoin="round" fill="#000000" stroke="#000000" stroke-width="1"></polygon></g></g></g><g pointer-events="auto"><g><g class="cloud-maps_raptor_node" id="8349e517-2767-463f-8f4b-08548d6d255b"><svg x="-1068" y="246" width="63" height="95.068"><path fill="#000" stroke="#000000" d="M.501 85.684q0 6.102 3.215 7.78 3.216 1.676 8.542-1.399l38.487-22.22q5.328-3.076 8.542-8.465 3.213-5.389 3.215-11.492 0-2.694-.155-5.173-.156-2.478-.617-5.185-.46-2.706-1.166-4.845-.705-2.138-1.894-3.864-1.189-1.725-2.73-2.54-1.541-.817-3.765-.546-2.225.27-4.91 1.818-.397.229-1.85 2.161-1.452 1.932-3.28 4.334-1.826 2.402-4.756 5.186-2.93 2.785-5.879 4.488-2.95 1.703-5.879 2.3-2.93.599-4.757.307-1.827-.292-3.28-.547-1.452-.255-1.849-.026-2.685 1.55-4.91 3.851-2.224 2.301-3.765 4.894-1.541 2.592-2.73 5.693-1.188 3.1-1.894 6.05-.705 2.95-1.166 6.192-.461 3.242-.617 5.897-.155 2.656-.155 5.352zm14.09-53.54q0 8.084 4.954 10.944 4.954 2.86 11.955-1.182 7.001-4.041 11.955-12.622 4.954-8.58 4.954-16.665 0-8.083-4.954-10.944-4.954-2.86-11.955 1.182-7 4.042-11.955 12.623-4.954 8.58-4.954 16.664z" stroke-width=".996"></path></svg></g></g></g><g pointer-events="auto"></g><g pointer-events="auto"><g><g class="cloud-maps_raptor_node" id="59fe2dd3-f3ce-4c33-8d39-d7eff3f0a706"><svg x="-784" y="472" overflow="visible"><g transform="scale(1.4131949617798671) matrix(0.707 0.409 -0.707 0.409 0 0)"><circle cx="0" cy="0" fill="transparent" r="39"></circle><svg width="64" height="64" x="-32" y="-32" style="fill: rgb(255, 255, 255);"><svg xmlns="http://www.w3.org/2000/svg" width="64" height="64" viewBox="0 0 64 64"><defs><linearGradient id="Lambda_svg__a" x1="0%" x2="100%" y1="100%" y2="0%"><stop offset="0%" stop-color="#C8511B"></stop><stop offset="100%" stop-color="#F90"></stop></linearGradient></defs><g fill="none" fill-rule="evenodd"><g fill="url(#Lambda_svg__a)"><path d="M0 0h64v64H0z"></path></g><path fill="#FFF" d="M22.68 52h-9.106l10.264-21.59 4.562 9.451L22.68 52Zm2.047-24.333a.994.994 0 0 0-.896-.564h-.003a.994.994 0 0 0-.896.569L11.097 52.569c-.147.31-.126.674.057.965.181.29.5.466.842.466H23.31a.996.996 0 0 0 .9-.572l6.194-13.144a1.003 1.003 0 0 0-.005-.864l-5.672-11.753ZM51.008 52h-9.022L26.955 19.578a.997.997 0 0 0-.903-.578h-5.924l.007-7h11.68l14.96 32.42c.163.354.516.58.904.58h3.33v7Zm.996-9h-3.69l-14.96-32.42a.995.995 0 0 0-.903-.58H19.14a.999.999 0 0 0-.996.999l-.008 9A.993.993 0 0 0 19.131 21h6.286l15.03 32.422a.995.995 0 0 0 .903.578h10.654c.55 0 .996-.448.996-1v-9c0-.552-.445-1-.996-1Z"></path></g></svg></svg></g></svg></g></g><g><g class="cloud-maps_raptor_node" id="9ed31aa1-a9b0-42cf-8658-c4da7bd88f8d"><svg x="-912" y="398" overflow="visible"><g transform="scale(1.4131949617798671) matrix(0.707 0.409 -0.707 0.409 0 0)"><circle cx="0" cy="0" fill="transparent" r="39"></circle><svg width="64" height="64" x="-32" y="-32" style="fill: rgb(255, 255, 255);"><svg xmlns="http://www.w3.org/2000/svg" width="64" height="64" viewBox="0 0 64 64"><defs><linearGradient id="API-Gateway_svg__a" x1="0%" x2="100%" y1="100%" y2="0%"><stop offset="0%" stop-color="#B0084D"></stop><stop offset="100%" stop-color="#FF4F8B"></stop></linearGradient></defs><g fill="none" fill-rule="evenodd"><g fill="url(#API-Gateway_svg__a)"><path d="M0 0h64v64H0z"></path></g><g fill="#FFF"><path d="M28 44h3v-2h-3v2Zm5 0h3v-2h-3v2Zm-5-22h3v-2h-3v2Zm5 0h3v-2h-3v2Zm-11-9.26-10 5.834v27.808l10 5V12.741ZM24 20h2v2h-2v20h2v2h-2v9a1.001 1.001 0 0 1-1.447.895l-12-6A1.001 1.001 0 0 1 10 47V18a1 1 0 0 1 .496-.864l12-7A1.002 1.002 0 0 1 24 11v9Zm28-1.426L42 12.74v38.641l10-5V18.574ZM54 18v29c0 .379-.214.725-.553.895l-12 6a1.005 1.005 0 0 1-.972-.044A1.001 1.001 0 0 1 40 53v-9h-2v-2h2V22h-2v-2h2v-9a.998.998 0 0 1 1.504-.864l12 7A1 1 0 0 1 54 18Zm-19.061 9.342-1.878-.684-4 11 1.878.684 4-11Zm4.768 5.365a.999.999 0 0 0 0-1.414l-3-3-1.414 1.414L37.586 32l-2.293 2.293 1.414 1.414 3-3Zm-12.414 3-3-3a.999.999 0 0 1 0-1.414l3-3 1.414 1.414L26.414 32l2.293 2.293-1.414 1.414Z"></path></g></g></svg></svg></g></svg></g></g><g><g class="cloud-maps_raptor_node" id="b4350977-8148-4f9b-9bbd-631c0ec33448"><svg x="-656" y="546" overflow="visible"><g transform="scale(1.4131949617798671) matrix(0.707 0.409 -0.707 0.409 0 0)"><circle cx="0" cy="0" fill="transparent" r="39"></circle><svg width="64" height="64" x="-32" y="-32" style="fill: rgb(255, 255, 255);"><svg xmlns="http://www.w3.org/2000/svg" width="64" height="64" viewBox="0 0 64 64"><defs><linearGradient id="DynamoDB_svg__a" x1="0%" x2="100%" y1="100%" y2="0%"><stop offset="0%" stop-color="#2E27AD"></stop><stop offset="100%" stop-color="#527FFF"></stop></linearGradient></defs><g fill="none" fill-rule="evenodd"><g fill="url(#DynamoDB_svg__a)"><path d="M0 0h64v64H0z"></path></g><path fill="#FFF" d="M46.586 25.25H43a.998.998 0 0 1-.822-.435 1.018 1.018 0 0 1-.114-.931l2.493-6.722h-8.913l-4.091 9.098H36c.32 0 .623.156.812.42.187.264.239.602.136.91l-3.66 11.101L46.586 25.25Zm3.12-.297L31.709 43.15a.992.992 0 0 1-1.232.146 1.014 1.014 0 0 1-.423-1.18l4.56-13.833H30a1 1 0 0 1-.841-.463 1.024 1.024 0 0 1-.07-.966l5-11.12a.998.998 0 0 1 .91-.593h11c.329 0 .636.163.823.435.187.273.23.62.115.931l-2.494 6.721H49a1 1 0 0 1 .924.624c.155.378.069.813-.217 1.102ZM41.002 44.22c-2.71 1.886-7.687 2.882-12.468 2.882-4.816 0-9.837-1.01-12.533-2.924l.001 3.816c0 1.664 4.768 3.984 12.532 3.984 7.495 0 12.468-2.702 12.468-4.49V44.22Zm2.064-3.27c0 .187-.032.367-.064.546v5.993C43 51.079 36.51 54 28.533 54c-6.903 0-13.871-1.89-14.473-5.5h-.059L14 43.445V16.151h.001c0-3.996 7.487-6.151 14.532-6.151 3.94 0 7.73.64 10.397 1.756l-.766 1.868c-2.432-1.019-5.943-1.602-9.631-1.602-7.764 0-12.532 2.405-12.532 4.13 0 1.724 4.768 4.129 12.532 4.129.195 0 .399 0 .596-.007l.078 2.02c-.225.009-.45.009-.674.009-4.817 0-9.837-1.01-12.533-2.924v4.358h.001v.017c.005.53.489 1.143 1.364 1.72 1.982 1.288 5.55 2.168 9.539 2.351l-.091 2.02c-4.126-.19-7.75-1.069-10.086-2.416-.31.298-.726 1.056-.726 1.467 0 1.724 4.768 4.129 12.532 4.129.738 0 1.465-.025 2.162-.075l.14 2.017c-.743.054-1.518.08-2.302.08-4.817 0-9.837-1.009-12.533-2.924v3.67h.001c.005.547.489 1.16 1.364 1.737 2.268 1.474 6.549 2.393 11.168 2.393h.33v2.022h-.33c-4.778 0-9.86-1.008-12.532-2.543-.322.298 0 1.01 0 1.548 0 1.725 4.768 4.13 12.532 4.13 7.765 0 12.532-2.405 12.532-4.13 0-.61-.6-1.174-1.092-1.538-.41.247-.86.483-1.372.7l-.768-1.868c.53-.223.99-.463 1.364-.711 1.1-.734 1.804-1.779 1.804-2.175h2c0 .94-.621 1.947-1.417 2.775 1.192 1.04 1.48 2.078 1.48 2.817ZM17.142 48.39c.791.408 1.716.772 2.752 1.08l.564-1.94a13.863 13.863 0 0 1-2.406-.94l-.91 1.8Zm2.752-11.05.564-1.94c-.916-.272-1.726-.589-2.406-.94l-.91 1.799c.791.41 1.716.772 2.752 1.08Zm-2.752-13.21.91-1.801c.68.352 1.49.668 2.406.94l-.564 1.94a15.945 15.945 0 0 1-2.752-1.08Z"></path></g></svg></svg></g></svg></g></g><g><g class="cloud-maps_raptor_node" id="dcc31fc6-afbc-4a2e-a498-317d14b8c498"><svg x="-528" y="620" overflow="visible"><g transform="scale(1.4131949617798671) matrix(0.707 0.409 -0.707 0.409 0 0)"><circle cx="0" cy="0" fill="transparent" r="39"></circle><svg width="64" height="64" x="-32" y="-32" style="fill: rgb(255, 255, 255);"><svg xmlns="http://www.w3.org/2000/svg" width="64" height="64" viewBox="0 0 64 64"><defs><linearGradient id="CloudWatch_svg__a" x1="0%" x2="100%" y1="100%" y2="0%"><stop offset="0%" stop-color="#B0084D"></stop><stop offset="100%" stop-color="#FF4F8B"></stop></linearGradient></defs><g fill="none" fill-rule="evenodd"><g fill="url(#CloudWatch_svg__a)"><path d="M0 0h64v64H0z"></path></g><path fill="#FFF" d="M42.184 39.381a4.095 4.095 0 0 0-8.189 0 4.095 4.095 0 0 0 8.189 0Zm2 0c0 3.353-2.734 6.081-6.095 6.081-3.36 0-6.094-2.728-6.094-6.08 0-3.354 2.734-6.082 6.094-6.082 3.361 0 6.095 2.728 6.095 6.081Zm6.559 10.235-4.897-4.4a9.992 9.992 0 0 1-1.061 1.19l4.886 4.397a.806.806 0 0 0 1.131-.059.801.801 0 0 0-.059-1.128Zm-12.654-2.524c4.262 0 7.729-3.46 7.729-7.71 0-4.252-3.467-7.711-7.729-7.711-4.26 0-7.727 3.459-7.727 7.71 0 4.251 3.467 7.71 7.727 7.71Zm13.992 1.042a2.796 2.796 0 0 1 .207 3.946c-.553.61-1.317.92-2.083.92a2.797 2.797 0 0 1-1.872-.713l-5.161-4.646a9.668 9.668 0 0 1-5.083 1.446c-5.364 0-9.727-4.354-9.727-9.706 0-5.352 4.363-9.706 9.727-9.706 5.365 0 9.729 4.354 9.729 9.706a9.61 9.61 0 0 1-.921 4.095l5.184 4.658ZM17.697 23.538c0 .401.023.8.07 1.185a.997.997 0 0 1-.806 1.101C15.084 26.308 12 27.772 12 32.157c0 3.323 1.836 5.157 3.377 6.11.672.423 1.263.638 1.761.643h8.989v1.996h-9c-.884-.01-1.827-.329-2.81-.947C12.708 38.964 10 36.62 10 32.157c0-5.27 3.526-7.293 5.71-8.04a13.965 13.965 0 0 1-.013-.579c0-4.378 2.976-8.916 6.924-10.56 4.611-1.927 9.498-.971 13.066 2.556 1.047 1.033 1.917 2.274 2.598 3.702a5.284 5.284 0 0 1 3.174-1.061c2.415 0 5.128 1.793 5.663 5.715C50.58 24.722 54 27.278 54 32.217c0 2.89-1.136 5.24-3.287 6.792l-1.172-1.616C51.173 36.214 52 34.473 52 32.217c0-4.978-4.189-6.217-5.99-6.519a.996.996 0 0 1-.824-1.127c-.255-3.04-2.045-4.401-3.727-4.401-1.057 0-2.05.516-2.725 1.416a.999.999 0 0 1-1.741-.26c-.634-1.752-1.547-3.223-2.712-4.375-1.43-1.411-5.348-4.444-10.89-2.132-3.193 1.33-5.694 5.16-5.694 8.72Z"></path></g></svg></svg></g></svg></g></g></g><g pointer-events="auto"><g><g class="cloud-maps_raptor_node" id="86f2415b-8f62-4271-b82b-e139758dc3e6"><svg x="-1152" y="370" overflow="visible"><text stroke="#ffffff" stroke-width="4" font-family="Noto Sans" y="36.5" font-size="25pt" fill="#000000" font-weight="bold" transform="matrix(0.707 -0.409 0.707 0.409 0 0)" paint-order="stroke" xml:space="preserve"><tspan x="8" dy="0">User</tspan></text></svg></g></g><g><g class="cloud-maps_raptor_node" id="17d32e81-cfad-44a0-9df4-58d8930ea78a"><svg x="-1136" y="509" overflow="visible"><text stroke="#ffffff" stroke-width="4" font-family="Noto Sans" y="36.5" font-size="25pt" fill="#000000" font-weight="bold" transform="matrix(0.707 -0.409 0.707 0.409 0 0)" paint-order="stroke" xml:space="preserve"><tspan x="8" dy="0">API Gateway</tspan></text></svg></g></g><g><g class="cloud-maps_raptor_node" id="d02b0d0c-50c9-41ea-8a56-801b7cafc236"><svg x="-960" y="555" overflow="visible"><text stroke="#ffffff" stroke-width="4" font-family="Noto Sans" y="36.5" font-size="25pt" fill="#000000" font-weight="bold" transform="matrix(0.707 -0.409 0.707 0.409 0 0)" paint-order="stroke" xml:space="preserve"><tspan x="8" dy="0">Lambda</tspan></text></svg></g></g><g><g class="cloud-maps_raptor_node" id="04e7f17f-5fd6-40ef-8cb4-d89b8ef906e3"><svg x="-864" y="648" overflow="visible"><text stroke="#ffffff" stroke-width="4" font-family="Noto Sans" y="36.5" font-size="25pt" fill="#000000" font-weight="bold" transform="matrix(0.707 -0.409 0.707 0.409 0 0)" paint-order="stroke" xml:space="preserve"><tspan x="8" dy="0">DynamoDB</tspan></text></svg></g></g><g><g class="cloud-maps_raptor_node" id="389f7181-a2b8-44fb-ac82-9af037df4ece"><svg x="-752" y="731" overflow="visible"><text stroke="#ffffff" stroke-width="4" font-family="Noto Sans" y="36.5" font-size="25pt" fill="#000000" font-weight="bold" transform="matrix(0.707 -0.409 0.707 0.409 0 0)" paint-order="stroke" xml:space="preserve"><tspan x="8" dy="0">CloudWatch</tspan></text></svg></g></g></g></g></svg>